<?xml version="1.0" encoding="UTF-8"?>
<svg id="Layer_2" data-name="Layer 2" xmlns="http://www.w3.org/2000/svg" xmlns:xlink="http://www.w3.org/1999/xlink" viewBox="0 0 234.96 197.28">
  <defs>
    <style>
      .cls-1, .cls-2 {
        fill: none;
      }

      .cls-3 {
        fill: #fff100;
        opacity: .37;
      }

      .cls-3, .cls-2 {
        stroke: #000;
        stroke-miterlimit: 10;
        stroke-width: 0px;
      }

      .cls-4 {
        clip-path: url(#clippath-1);
      }

      .cls-5 {
        clip-path: url(#clippath-4);
      }

      .cls-6 {
        clip-path: url(#clippath-3);
      }

      .cls-7 {
        clip-path: url(#clippath-2);
      }

      .cls-8 {
        clip-path: url(#clippath-7);
      }

      .cls-9 {
        clip-path: url(#clippath-8);
      }

      .cls-10 {
        clip-path: url(#clippath-5);
      }

      .cls-11 {
        clip-path: url(#clippath-9);
      }

      .cls-12 {
        clip-path: url(#clippath-10);
      }

      .cls-13 {
        clip-path: url(#clippath-11);
      }

      .cls-2 {
        opacity: 0;
      }
    </style>
    <clipPath id="clippath-1">
      <rect class="cls-1" x="124.94" y="12.27" width="19" height="10"/>
    </clipPath>
    <clipPath id="clippath-2">
      <rect class="cls-1" x="124.94" y="12.27" width="19" height="10"/>
    </clipPath>
    <clipPath id="clippath-3">
      <rect class="cls-1" x="124.94" y="12.27" width="19" height="10"/>
    </clipPath>
    <clipPath id="clippath-4">
      <rect class="cls-1" x="124.94" y="12.27" width="19" height="10"/>
    </clipPath>
    <clipPath id="clippath-5">
      <rect class="cls-1" x="124.94" y="12.27" width="19" height="10"/>
    </clipPath>
    <clipPath id="clippath-7">
      <rect class="cls-1" x="123.94" y="24.5" width="21" height="10"/>
    </clipPath>
    <clipPath id="clippath-8">
      <rect class="cls-1" x="123.94" y="24.5" width="21" height="10"/>
    </clipPath>
    <clipPath id="clippath-9">
      <rect class="cls-1" x="123.94" y="24.5" width="21" height="10"/>
    </clipPath>
    <clipPath id="clippath-10">
      <rect class="cls-1" x="123.94" y="24.5" width="21" height="10"/>
    </clipPath>
    <clipPath id="clippath-11">
      <rect class="cls-1" x="123.94" y="24.5" width="21" height="10"/>
    </clipPath>
  </defs>
  <g id="Layer_1-2" data-name="Layer 1">
    <image width="979" height="822" transform="scale(.24)" xlink:href="../figure_irate_d3rec.png"/>
    <polygon class="cls-2" points="133.95 18.02 133.95 18.02 133.95 18.02 133.95 18.02 133.95 18.02 133.95 18.02 133.95 18.02 133.95 18.02 133.95 18.02 133.95 18.02 133.95 18.02 133.95 18.02 133.95 18.02 133.95 18.02 133.95 18.02 133.95 18.02 133.95 18.02 133.95 18.02 133.95 18.02 133.95 18.02 133.95 18.02 133.95 18.02 133.95 18.02 133.95 18.02 133.95 18.02 133.95 18.02 133.95 18.02 133.95 18.02 133.95 18.02 133.95 18.02 133.95 18.02 133.95 18.02 133.95 18.02 133.95 18.02 133.95 18.02 133.95 18.02 133.95 18.02 133.95 18.02 133.95 18.02 133.95 18.02 133.95 18.02 133.95 18.02 133.95 18.02 133.95 18.02 133.95 18.02 133.95 18.02 133.95 18.02 133.95 18.02 133.95 18.02 133.95 18.02 133.95 18.02 133.95 18.02 133.95 18.02 133.95 18.02 133.95 18.02 133.95 18.02 133.95 18.02 133.95 18.02 133.95 18.02 133.95 18.02 133.95 18.02 133.95 18.02 133.95 18.02 133.95 18.02 133.95 18.02 133.95 18.02 133.95 18.02 133.95 18.02 133.95 18.02 133.95 18.02 133.95 18.02 133.95 18.02 133.95 18.02 133.95 18.02 133.95 18.02 133.95 18.02 133.95 18.02 133.95 18.02 133.95 18.02 133.95 18.02 133.95 18.02 133.95 18.02 133.95 18.02 133.95 18.02 133.95 18.02 133.95 18.02 133.95 18.02 133.95 18.02 133.95 18.02"/>
    <g class="cls-4">
      <path d="m128.95,13.95c.09-.36.12-.46.9-.46.24,0,.32,0,.32-.19,0-.12-.11-.12-.15-.12-.29,0-1.02.03-1.31.03s-1.02-.03-1.32-.03c-.07,0-.2,0-.2.2,0,.11.09.11.28.11.42,0,.69,0,.69.19,0,.05,0,.07-.02.16l-1.34,5.35c-.09.37-.12.47-.9.47-.23,0-.32,0-.32.2,0,.11.12.11.15.11.29,0,1.01-.03,1.3-.03s1.03.03,1.33.03c.08,0,.2,0,.2-.19,0-.12-.08-.12-.3-.12-.18,0-.23,0-.43-.02-.21-.02-.25-.06-.25-.17,0-.08.02-.16.04-.23l1.33-5.3"/>
    </g>
    <g class="cls-7">
      <path d="m130.94,19.86c0-.59.28-1.3.94-1.3-.06.05-.12.14-.12.25,0,.23.18.32.32.32.17,0,.32-.11.32-.32,0-.24-.23-.45-.56-.45-.35,0-.74.22-.95.75h0v-.75l-1.01.08v.25c.47,0,.53.05.53.39v1.82c0,.3-.07.3-.53.3v.25s.51-.03.8-.03c.3,0,.61.01.91.03v-.25h-.14c-.52,0-.52-.08-.52-.32v-1.03"/>
    </g>
    <g class="cls-6">
      <path d="m135.32,20.48c0,.67-.59.86-.91.86-.36,0-.7-.24-.7-.58,0-.39.34-.93,1.6-.98v.7m.56-.89c0-.37,0-.64-.32-.9-.29-.24-.63-.35-1.04-.35-.67,0-1.14.25-1.14.68,0,.22.16.34.34.34s.33-.14.33-.33c0-.12-.06-.27-.24-.32.25-.18.66-.18.7-.18.39,0,.82.26.82.85v.22c-.39.01-.85.04-1.36.23-.63.23-.83.62-.83.94,0,.61.73.78,1.23.78.56,0,.89-.32,1.04-.59.03.29.22.55.54.55.01,0,.7,0,.7-.67v-.39h-.24v.38c0,.07,0,.41-.26.41s-.26-.33-.26-.42v-1.23Z"/>
    </g>
    <g class="cls-5">
      <path d="m138.05,18.69h1.1v-.25h-1.1v-1.29h-.24c0,.63-.3,1.33-.97,1.35v.2h.65v1.9c0,.79.59.95.99.95.47,0,.79-.4.79-.96v-.39h-.24v.38c0,.48-.23.74-.5.74-.49,0-.49-.59-.49-.72v-1.9"/>
    </g>
    <g class="cls-10">
      <path d="m140.66,19.68c.08-.99.71-1.15.98-1.15.86,0,.89.98.9,1.15h-1.88m2.17.18c.15,0,.2,0,.2-.15,0-.62-.35-1.38-1.39-1.38-.92,0-1.62.73-1.62,1.6s.78,1.61,1.72,1.61,1.3-.76,1.3-.91c0-.03-.01-.1-.12-.1-.09,0-.1.04-.13.11-.22.57-.75.67-1.01.67-.33,0-.65-.15-.86-.41-.26-.33-.27-.76-.27-1.03h2.18Z"/>
    </g>
    <polygon class="cls-2" points="134.38 30.26 134.38 30.25 134.38 30.25 134.38 30.25 134.38 30.25 134.38 30.25 134.38 30.25 134.38 30.25 134.38 30.25 134.38 30.25 134.38 30.25 134.38 30.25 134.38 30.25 134.38 30.25 134.38 30.25 134.38 30.25 134.38 30.25 134.38 30.25 134.38 30.25 134.38 30.25 134.38 30.25 134.38 30.25 134.38 30.25 134.38 30.25 134.38 30.25 134.38 30.25 134.38 30.25 134.38 30.25 134.38 30.25 134.38 30.25 134.38 30.25 134.38 30.25 134.38 30.25 134.38 30.25 134.38 30.25 134.38 30.25 134.38 30.25 134.38 30.25 134.38 30.25 134.38 30.25 134.38 30.25 134.38 30.25 134.38 30.25 134.38 30.25 134.38 30.25 134.38 30.25 134.38 30.25 134.38 30.25 134.38 30.25 134.38 30.25 134.38 30.25 134.38 30.25 134.38 30.25 134.38 30.25 134.38 30.25 134.38 30.25 134.38 30.25 134.38 30.25 134.38 30.25 134.38 30.25 134.38 30.25 134.38 30.25 134.38 30.25 134.38 30.25 134.38 30.25 134.38 30.25 134.38 30.25 134.38 30.25 134.38 30.25 134.38 30.25 134.38 30.25 134.38 30.25 134.38 30.25 134.38 30.25 134.38 30.25 134.38 30.25 134.38 30.25 134.38 30.25 134.38 30.25 134.38 30.25 134.38 30.25 134.38 30.25 134.38 30.25 134.38 30.25 134.38 30.25 134.38 30.25 134.38 30.25 134.38 30.25 134.38 30.26"/>
    <g class="cls-8">
      <path d="m128.79,28.82c1-.22,2.19-.91,2.19-1.92,0-.85-.89-1.49-2.2-1.49h-2.83c-.2,0-.29,0-.29.2,0,.11.09.11.28.11.02,0,.21,0,.38.02.18.02.27.03.27.16,0,.04,0,.07-.04.19l-1.33,5.33c-.1.39-.12.47-.9.47-.18,0-.27,0-.27.2,0,.11.12.11.14.11.28,0,.97-.03,1.25-.03s.98.03,1.26.03c.08,0,.2,0,.2-.2,0-.11-.09-.11-.28-.11-.37,0-.65,0-.65-.18,0-.06.02-.11.03-.17l.66-2.63h1.18c.9,0,1.08.56,1.08.9,0,.15-.08.46-.14.69-.07.28-.16.64-.16.84,0,1.07,1.19,1.07,1.32,1.07.84,0,1.19-1,1.19-1.14,0-.12-.11-.12-.12-.12-.09,0-.11.07-.13.14-.25.74-.67.9-.91.9-.33,0-.4-.22-.4-.61,0-.31.06-.81.1-1.13.02-.14.04-.33.04-.47,0-.76-.67-1.07-.93-1.17m-1.43-2.72c.06-.24.09-.34.28-.37.09-.01.41-.01.61-.01.7,0,1.81,0,1.81.98,0,.34-.16,1.02-.55,1.41-.26.26-.78.58-1.68.58h-1.11l.64-2.59Z"/>
    </g>
    <g class="cls-9">
      <path d="m132.54,32.1c0-.59.27-1.3.94-1.3-.06.05-.12.14-.12.25,0,.23.18.32.32.32.17,0,.32-.11.32-.32,0-.24-.22-.45-.55-.45-.35,0-.74.22-.95.75h0v-.75l-1.01.08v.25c.47,0,.53.05.53.39v1.82c0,.3-.07.3-.53.3v.25s.51-.03.8-.03c.3,0,.61.01.91.03v-.25h-.14c-.52,0-.52-.08-.52-.32v-1.03"/>
    </g>
    <g class="cls-11">
      <path d="m136.82,32.71c0,.67-.59.86-.91.86-.36,0-.7-.24-.7-.58,0-.39.34-.93,1.6-.98v.7m.56-.89c0-.37,0-.64-.32-.9-.29-.24-.63-.35-1.04-.35-.67,0-1.14.25-1.14.68,0,.22.15.34.34.34s.33-.14.33-.33c0-.12-.06-.27-.25-.32.25-.18.66-.18.7-.18.39,0,.82.26.82.85v.22c-.39.01-.85.04-1.36.23-.63.23-.83.62-.83.94,0,.61.73.78,1.23.78.56,0,.89-.32,1.04-.59.03.29.22.55.54.55.01,0,.7,0,.7-.67v-.39h-.24v.38c0,.07,0,.41-.26.41s-.26-.33-.26-.42v-1.23Z"/>
    </g>
    <g class="cls-12">
      <path d="m139.65,30.92h1.1v-.25h-1.1v-1.29h-.24c0,.63-.3,1.33-.97,1.35v.2h.65v1.9c0,.79.59.95.99.95.47,0,.79-.4.79-.96v-.39h-.24v.38c0,.48-.22.74-.5.74-.49,0-.49-.59-.49-.72v-1.9"/>
    </g>
    <g class="cls-13">
      <path d="m142.26,31.91c.08-.99.71-1.15.98-1.15.86,0,.89.98.9,1.15h-1.88m2.17.18c.15,0,.2,0,.2-.15,0-.62-.35-1.38-1.39-1.38-.92,0-1.62.73-1.62,1.6s.78,1.61,1.72,1.61,1.3-.76,1.3-.91c0-.03-.01-.1-.12-.1-.09,0-.1.04-.13.11-.22.57-.75.67-1.01.67-.33,0-.65-.15-.86-.41-.26-.33-.27-.76-.27-1.03h2.18Z"/>
    </g>
    <rect class="cls-3" x="214.06" y="7.08" width="7.81" height="102.82"/>
    <rect class="cls-3" x="214.06" y="113.14" width="7.81" height="46.03"/>
  </g>
</svg>